<?xml version="1.0" encoding="UTF-8" standalone="no"?>
<!-- Created with Inkscape (http://www.inkscape.org/) -->

<svg
   xmlns:dc="http://purl.org/dc/elements/1.1/"
   xmlns:cc="http://creativecommons.org/ns#"
   xmlns:rdf="http://www.w3.org/1999/02/22-rdf-syntax-ns#"
   xmlns:svg="http://www.w3.org/2000/svg"
   xmlns="http://www.w3.org/2000/svg"
   xmlns:sodipodi="http://sodipodi.sourceforge.net/DTD/sodipodi-0.dtd"
   xmlns:inkscape="http://www.inkscape.org/namespaces/inkscape"
   width="1000"
   height="1000"
   id="svg3105"
   version="1.1"
   inkscape:version="0.48.3.1 r9886"
   sodipodi:docname="c.svg">
  <defs
     id="defs5498" />
  <sodipodi:namedview
     inkscape:window-height="699"
     inkscape:window-width="1051"
     inkscape:pageshadow="2"
     inkscape:pageopacity="0.0"
     borderopacity="1.0"
     bordercolor="#666666"
     pagecolor="#ffffff"
     id="base"
     showgrid="false"
     showguides="true"
     inkscape:guide-bbox="true"
     inkscape:zoom="0.454"
     inkscape:cx="-168.19342"
     inkscape:cy="592.60075"
     inkscape:window-x="2024"
     inkscape:window-y="976"
     inkscape:current-layer="layer1"
     inkscape:snap-bbox="true"
     inkscape:window-maximized="0">
    <sodipodi:guide
       orientation="horizontal"
       position="200"
       id="guide5596" />
  </sodipodi:namedview>
  <metadata
     id="metadata5594">
    <rdf:RDF>
      <cc:Work
         rdf:about="">
        <dc:format>image/svg+xml</dc:format>
        <dc:type
           rdf:resource="http://purl.org/dc/dcmitype/StillImage" />
        <dc:title />
      </cc:Work>
    </rdf:RDF>
  </metadata>
  <g
     inkscape:label="Layer 1"
     inkscape:groupmode="layer"
     id="layer1">
    <g
       id="g5596"
       transform="matrix(6.4073244,0,0,6.4073244,1530.2526,-1119.7916)">
      <path
         style="fill:#000000"
         id="path3397"
         d="m -152.96516,177.88885 c -1.64072,0 0.0561,16.36215 2.875,27.59375 l 1.59375,6.25 -15.15625,-1.46875 c -8.32965,-0.81368 -17.80655,-2.08543 -21.0625,-2.84375 -8.41755,-1.96041 -16.30412,4.22435 -12.75,10 2.31201,3.75709 5.41767,4.18724 25.4375,3.4375 l 22.8125,-0.875 0,27.5 c 0,22.86066 0.60915,27.5 3.5625,27.5 2.77623,0 3.5459,-3.24493 3.5625,-14.8125 0.0113,-8.13988 0.72386,-20.5159 1.5625,-27.5 l 1.53125,-12.6875 12.0625,1.59375 c 6.63873,0.87899 15.86904,2.16106 20.5,2.84375 10.464336,1.54261 16.641976,-3.86677 11.499996,-10.0625 -2.54488,-3.06651 -7.007226,-3.64052 -23.374996,-2.96875 l -20.25,0.84375 0.78125,-11.875 c 0.69504,-10.86285 0.13263,-12.29875 -6.4375,-17.15625 -3.94628,-2.91762 -7.86905,-5.3125 -8.75,-5.3125 z"
         inkscape:connector-curvature="0" />
      <path
         style="fill:#000000"
         id="path3395"
         d="m -205.05891,190.6076 c -1.49283,-0.006 -3.12229,0.005 -4.90625,0.0312 l -18.53125,0.28125 0.375,22.5 0.375,22.5 9.9375,-0.6875 c 14.40451,-0.96357 16.5,1.85514 16.5,22.09375 l 0,17.3125 -13.34375,1.6563 -13.34375,1.6875 8.90625,3.0625 c 4.89839,1.68398 10.06896,4.19395 11.46875,5.59375 3.38411,3.3841 7.57232,3.22708 10.5,-0.40625 1.3118,-1.62798 2.77435,-15.21013 3.25,-30.1875 l 0.875,-27.25 -13.03125,-1.1875 -13.03125,-1.1875 -0.71875,-10.21875 c -0.99982,-13.89614 2.62157,-17.86703 14.875,-16.1875 10.82233,1.48336 16.79636,-0.98641 14.8125,-6.15625 -0.89638,-2.33592 -4.51895,-3.2111 -14.96875,-3.25 z"
         inkscape:connector-curvature="0" />
    </g>
  </g>
</svg>
