<?xml version="1.0" encoding="UTF-8" standalone="no"?>
<!-- Created with Inkscape (http://www.inkscape.org/) -->

<svg
   xmlns:dc="http://purl.org/dc/elements/1.1/"
   xmlns:cc="http://creativecommons.org/ns#"
   xmlns:rdf="http://www.w3.org/1999/02/22-rdf-syntax-ns#"
   xmlns:svg="http://www.w3.org/2000/svg"
   xmlns="http://www.w3.org/2000/svg"
   xmlns:sodipodi="http://sodipodi.sourceforge.net/DTD/sodipodi-0.dtd"
   xmlns:inkscape="http://www.inkscape.org/namespaces/inkscape"
   width="1000"
   height="1000"
   id="svg3105"
   version="1.1"
   inkscape:version="0.48.3.1 r9886"
   sodipodi:docname="f.svg">
  <defs
     id="defs5498" />
  <sodipodi:namedview
     inkscape:window-height="699"
     inkscape:window-width="1051"
     inkscape:pageshadow="2"
     inkscape:pageopacity="0.0"
     borderopacity="1.0"
     bordercolor="#666666"
     pagecolor="#ffffff"
     id="base"
     showgrid="false"
     showguides="true"
     inkscape:guide-bbox="true"
     inkscape:zoom="0.454"
     inkscape:cx="148.65925"
     inkscape:cy="500"
     inkscape:window-x="2024"
     inkscape:window-y="976"
     inkscape:current-layer="layer1"
     inkscape:snap-bbox="true"
     inkscape:window-maximized="0">
    <sodipodi:guide
       orientation="horizontal"
       position="200"
       id="guide5596" />
  </sodipodi:namedview>
  <metadata
     id="metadata5594">
    <rdf:RDF>
      <cc:Work
         rdf:about="">
        <dc:format>image/svg+xml</dc:format>
        <dc:type
           rdf:resource="http://purl.org/dc/dcmitype/StillImage" />
        <dc:title />
      </cc:Work>
    </rdf:RDF>
  </metadata>
  <g
     inkscape:label="Layer 1"
     inkscape:groupmode="layer"
     id="layer1">
    <path
       inkscape:connector-curvature="0"
       d="m 455.11104,20.008381 c -10.99424,0.41092 -9.89754,15.86648 -2.96175,49.50364 5.90848,28.65448 14.83936,79.272339 19.6745,112.335149 l 8.67372,60.08132 -66.63949,0 c -36.69727,0 -98.00541,-7.93121 -136.24076,-17.55898 -75.83677,-19.09598 -137.08696,-0.62485 -137.08696,41.25302 0,38.76103 33.67959,46.40994 187.4368,42.31079 l 149.14556,-4.01952 0,65.15861 c 0,63.27948 -1.60599,65.15863 -53.73472,65.15863 -29.54281,0 -76.92,-8.07 -105.35387,-17.9821 -71.2838,-24.84963 -88.39625,-3.97355 -65.79327,79.9674 9.77893,36.316 18.26722,100.42376 19.03984,142.37582 0.77271,41.95206 9.37926,81.24605 19.03987,87.37177 9.66059,6.12573 86.99117,6.85814 171.78181,1.69245 100.57709,-6.12728 164.67624,-3.15389 184.68661,8.46214 68.94113,40.02017 91.97111,13.9734 109.58491,-124.18216 6.0958,-47.81309 17.4793,-98.8022 25.1749,-113.18138 28.4591,-53.17605 -7.0196,-71.75523 -127.14388,-66.85105 l -113.18137,4.44263 0,-67.06258 0,-67.27416 84.19849,9.94303 c 46.28793,5.42052 109.75776,14.21047 141.10646,19.46296 42.5052,7.12169 62.8764,2.56797 79.7559,-17.77054 19.8651,-23.93584 18.3783,-30.74058 -11.8471,-55.21557 -28.32,-22.93218 -56.4166,-26.42089 -158.24233,-19.88608 l -123.75907,7.8275 9.51995,-70.65902 C 572.80151,96.510831 567.65604,84.611201 505.67243,45.183301 479.45918,28.508991 463.66216,19.688931 455.11104,20.008381 z m -122.27819,462.456949 124.18217,0 c 68.32983,0.0968 151.41225,4.68966 184.47504,10.1546 l 60.08134,9.94304 0,84.19847 c 0,73.76802 -4.36464,85.4617 -35.96418,93.92995 -39.63884,10.6236 -239.39568,9.7484 -296.59864,-1.26933 -32.56875,-6.27303 -36.17573,-16.12549 -36.17573,-101.96899 l 0,-94.98774 z"
       id="path3425"
       style="fill:#000000" />
  </g>
</svg>
