<?xml version="1.0" encoding="UTF-8" standalone="no"?>
<!-- Created with Inkscape (http://www.inkscape.org/) -->

<svg
   xmlns:dc="http://purl.org/dc/elements/1.1/"
   xmlns:cc="http://creativecommons.org/ns#"
   xmlns:rdf="http://www.w3.org/1999/02/22-rdf-syntax-ns#"
   xmlns:svg="http://www.w3.org/2000/svg"
   xmlns="http://www.w3.org/2000/svg"
   xmlns:sodipodi="http://sodipodi.sourceforge.net/DTD/sodipodi-0.dtd"
   xmlns:inkscape="http://www.inkscape.org/namespaces/inkscape"
   width="1000"
   height="1000"
   id="svg3105"
   version="1.1"
   inkscape:version="0.48.3.1 r9886"
   sodipodi:docname="h.svg">
  <defs
     id="defs5498" />
  <sodipodi:namedview
     inkscape:window-height="1162"
     inkscape:window-width="1432"
     inkscape:pageshadow="2"
     inkscape:pageopacity="0.0"
     borderopacity="1.0"
     bordercolor="#666666"
     pagecolor="#ffffff"
     id="base"
     showgrid="false"
     showguides="true"
     inkscape:guide-bbox="true"
     inkscape:zoom="0.454"
     inkscape:cx="-113.45529"
     inkscape:cy="500"
     inkscape:window-x="1920"
     inkscape:window-y="660"
     inkscape:current-layer="layer1"
     inkscape:snap-bbox="true"
     inkscape:window-maximized="0">
    <sodipodi:guide
       orientation="horizontal"
       position="200"
       id="guide5596" />
  </sodipodi:namedview>
  <metadata
     id="metadata5594">
    <rdf:RDF>
      <cc:Work
         rdf:about="">
        <dc:format>image/svg+xml</dc:format>
        <dc:type
           rdf:resource="http://purl.org/dc/dcmitype/StillImage" />
        <dc:title />
      </cc:Work>
    </rdf:RDF>
  </metadata>
  <g
     inkscape:label="Layer 1"
     inkscape:groupmode="layer"
     id="layer1">
    <path
       inkscape:connector-curvature="0"
       d="m 555.65357,20 11.15341,96.45643 11.1534,96.66298 -60.51761,-10.12069 c -171.46584,-28.78343 -217.75976,-29.6482 -238.7658,-4.33745 -11.42838,13.76938 -16.49855,36.46762 -11.15343,50.39694 8.41192,21.92112 28.77305,23.89159 150.57117,14.2516 170.08513,-13.4617 178.14758,-0.22076 64.85508,105.75095 -85.27703,79.76688 -177.47502,134.81594 -170.81255,102.03312 2.73769,-13.47134 -13.02893,-19.20688 -48.12496,-17.5563 l -52.25585,2.47853 10.32725,-89.84698 c 9.88823,-85.1982 8.40739,-91.30206 -30.98172,-117.11092 l -41.72207,-27.05738 10.94689,125.16616 10.94687,125.16615 -62.78964,16.93667 c -67.349726,18.13531 -95.131093,64.53899 -57.419443,95.83685 16.303823,13.53117 32.305124,9.83344 68.159773,-15.69743 l 46.88569,-33.46029 4.54399,128.47088 c 3.03003,85.44907 11.15328,130.56592 24.16573,134.87387 14.7405,4.8799 19.62176,-30.3315 19.62176,-143.34212 0,-82.49321 6.55432,-150.15818 14.45815,-150.15818 7.90401,0 26.48731,-4.56034 41.51551,-10.32724 19.68409,-7.55357 23.97678,-4.89793 15.07777,9.50108 -9.08155,14.69421 -3.91497,17.17792 19.62176,9.70764 28.33313,-8.99257 33.9865,-0.59683 48.53803,72.70381 9.04357,45.55435 18.25255,110.97549 20.65448,145.40746 l 4.54399,62.58322 159.86569,-4.75059 c 91.30576,-2.79562 172.11594,1.93251 187.95579,11.1534 74.0018,43.07949 84.19691,28.40916 130.74289,-189.40156 16.69014,-78.10088 24.01399,-89.87911 59.69144,-94.80413 l 40.68934,-5.57675 -46.47258,-19.62175 C 824.17055,455.63144 647.66713,286.54837 671.52521,262.69016 c 3.64291,-3.64271 60.19383,2.67485 125.57924,14.04506 150.84325,26.23093 206.24845,3.00822 143.13559,-60.10454 C 918.98,195.37063 894.2594,192.79805 791.52775,201.75945 l -123.30727,10.74033 0,-62.99617 c 0,-55.837448 -6.28842,-66.812848 -56.18018,-96.249878 L 555.65357,20 z m 83.23755,266.23626 c 0.85282,-0.0991 1.4232,0.0839 1.85891,0.61932 61.86304,76.10987 154.56697,206.67988 149.95153,211.29531 -3.34682,3.34664 -51.53118,9.29663 -107.19675,13.21894 -96.86886,6.82531 -128.81161,5.06936 -248.67996,-14.66469 l -53.49511,-8.88112 93.56481,-59.07183 c 51.44465,-32.52773 108.47112,-79.60824 126.61196,-104.51168 15.87315,-21.7905 31.41484,-37.30813 37.38461,-38.00425 z M 507.32206,554.9511 c 31.52391,0.0534 74.19335,3.42468 131.56906,8.46835 l 146.85337,12.80574 0,86.12928 0,86.12909 -164.40968,2.89171 c -90.38393,1.61405 -173.06491,-0.68022 -183.82488,-5.16361 -12.22772,-5.09524 -19.62176,-39.93823 -19.62176,-92.73867 0,-71.5501 5.16343,-95.98329 76.62812,-98.31533 4.06052,-0.13224 8.3024,-0.21351 12.80577,-0.20626 z"
       id="path3381"
       style="fill:#000000" />
  </g>
</svg>
