<?xml version="1.0" encoding="UTF-8" standalone="no"?>
<!-- Created with Inkscape (http://www.inkscape.org/) -->

<svg
   xmlns:dc="http://purl.org/dc/elements/1.1/"
   xmlns:cc="http://creativecommons.org/ns#"
   xmlns:rdf="http://www.w3.org/1999/02/22-rdf-syntax-ns#"
   xmlns:svg="http://www.w3.org/2000/svg"
   xmlns="http://www.w3.org/2000/svg"
   version="1.1"
   width="1000"
   height="1000"
   id="svg3105">
  <defs
     id="defs5498" />
  <metadata
     id="metadata5594">
    <rdf:RDF>
      <cc:Work
         rdf:about="">
        <dc:format>image/svg+xml</dc:format>
        <dc:type
           rdf:resource="http://purl.org/dc/dcmitype/StillImage" />
        <dc:title></dc:title>
      </cc:Work>
    </rdf:RDF>
  </metadata>
  <g
     id="layer1">
    <path
       d="m 452.67856,20.007347 c -9.71078,0.36135 -8.84175,13.99665 -2.79968,43.67515 23.11118,113.521463 21.59413,117.123993 -48.52794,112.174203 -35.00409,-2.47089 -82.88125,-9.54259 -106.38818,-15.67825 -60.99267,-15.92004 -108.88542,4.86223 -103.21521,44.79502 4.40772,31.04152 8.26714,31.91926 142.41085,26.87701 l 137.93134,-5.22609 0,107.88135 0,108.06799 -129.13072,-14.67081 c -75.68686,-19.82819 -138.0155,-7.17036 -142.86167,26.95234 -4.21205,29.65746 75.73011,27.32452 147.49513,27.32452 74.92858,0 132.13532,-7.58218 140.73657,35.42451 24.50981,37.03444 114.23504,-6.32481 39.34517,-31.54205 l 68.16177,2.79968 c 72.81277,2.46827 81.37763,-0.24428 81.37763,-25.57048 0,-24.97383 -8.77099,-28.07395 -74.84501,-26.31708 l -74.84503,2.0531 4.10622,-100.97545 4.10621,-101.16209 70.73881,5.41273 c 170.38354,12.63584 197.20095,10.26105 202.69747,-17.73136 8.46435,-43.10709 -25.91768,-52.92114 -151.55649,-43.30186 l -118.52017,8.95901 8.77236,-47.22142 C 557.714,89.245227 551.25647,76.548397 497.28694,42.218207 474.16429,27.509797 460.23143,19.726397 452.67856,20.007347 z"
       id="path3365"
       style="fill:#000000" />
    <path
       d="m 450.4664,959.54835 c -9.95048,-1.61539 -15.86104,-7.24685 -22.24185,-21.19158 -6.01676,-13.14913 -2.24313,-23.77052 11.01922,-31.01508 3.66036,-1.99947 35.92016,-8.72688 41.84782,-8.72688 5.72299,0 7.43377,1.49427 9.16568,8.00563 3.05394,11.48176 5.6684,26.13349 5.08093,28.47415 -0.34254,1.36479 -2.6769,3.85692 -5.30915,5.66795 -2.58379,1.77769 -7.00149,5.61066 -9.81712,8.51769 -8.18916,8.45503 -18.6565,12.06837 -29.74553,10.26812 z m -3.66928,-74.5421 c -8.85183,-7.44833 -20.09235,-42.97682 -32.39463,-102.39144 -6.16251,-29.76216 -6.97601,-35.08718 -7.07351,-46.30126 -0.0992,-11.41443 -0.23918,-11.21776 12.253,-17.22025 14.93749,-7.17746 38.10835,-13.70553 97.41179,-27.44444 7.5625,-1.75202 13.75,-3.5751 13.75,-4.0513 0,-1.69389 -12.93271,-39.76756 -19.38846,-57.07926 -13.95503,-37.42175 -22.49947,-51.19828 -34.99122,-56.41767 -6.04519,-2.52584 -14.94608,-1.82913 -32.12032,2.51418 -18.16456,4.59376 -26.15472,5.144 -29.00248,1.99726 -1.56228,-1.7263 -1.65551,-2.52655 -0.67548,-5.79761 1.8127,-6.05025 6.92588,-13.02868 16.63856,-22.70816 10.53344,-10.49745 18.83567,-17.07968 26.5394,-21.04117 4.55977,-2.34477 6.78213,-2.83545 13,-2.87032 9.47777,-0.0531 15.43808,2.82105 24.36765,11.75061 7.92498,7.92498 15.54063,18.90666 35.13857,50.66939 23.08621,37.41622 34.71523,53.89658 52.47941,74.37248 19.2964,22.24202 9.9838,44.7147 -22.98563,55.46776 -3.575,1.16599 -12.7908,3.52599 -20.47956,5.24444 -36.38006,8.13102 -71.77197,24.64739 -77.69534,36.25816 -2.55009,4.99858 -2.68697,13.12084 -0.43524,25.82674 6.39382,36.07876 3.181,89.4483 -5.9798,99.33297 -2.92939,3.16086 -4.4929,3.14007 -8.35671,-0.11111 z"
       id="path3270"
       style="fill:#000000" />
  </g>
</svg>
