<?xml version="1.0" encoding="UTF-8" standalone="no"?>
<!-- Created with Inkscape (http://www.inkscape.org/) -->

<svg
   xmlns:dc="http://purl.org/dc/elements/1.1/"
   xmlns:cc="http://creativecommons.org/ns#"
   xmlns:rdf="http://www.w3.org/1999/02/22-rdf-syntax-ns#"
   xmlns:svg="http://www.w3.org/2000/svg"
   xmlns="http://www.w3.org/2000/svg"
   xmlns:sodipodi="http://sodipodi.sourceforge.net/DTD/sodipodi-0.dtd"
   xmlns:inkscape="http://www.inkscape.org/namespaces/inkscape"
   width="1000"
   height="1000"
   id="svg3105"
   version="1.1"
   inkscape:version="0.48.3.1 r9886"
   sodipodi:docname="k.svg">
  <defs
     id="defs5498" />
  <sodipodi:namedview
     inkscape:window-height="699"
     inkscape:window-width="1051"
     inkscape:pageshadow="2"
     inkscape:pageopacity="0.0"
     borderopacity="1.0"
     bordercolor="#666666"
     pagecolor="#ffffff"
     id="base"
     showgrid="false"
     showguides="true"
     inkscape:guide-bbox="true"
     inkscape:zoom="0.454"
     inkscape:cx="7.7712826"
     inkscape:cy="458.30973"
     inkscape:window-x="2024"
     inkscape:window-y="976"
     inkscape:current-layer="layer1"
     inkscape:snap-bbox="true"
     inkscape:window-maximized="0">
    <sodipodi:guide
       orientation="horizontal"
       position="200"
       id="guide5596" />
  </sodipodi:namedview>
  <metadata
     id="metadata5594">
    <rdf:RDF>
      <cc:Work
         rdf:about="">
        <dc:format>image/svg+xml</dc:format>
        <dc:type
           rdf:resource="http://purl.org/dc/dcmitype/StillImage" />
        <dc:title />
      </cc:Work>
    </rdf:RDF>
  </metadata>
  <g
     inkscape:label="Layer 1"
     inkscape:groupmode="layer"
     id="layer1">
    <g
       id="g3215"
       transform="translate(0,-100.95343)">
      <path
         style="fill:#000000"
         id="path3359"
         d="m 557.9004,120.988 c -5.52049,1.30348 -5.95521,33.71214 -0.75872,75.30275 l 10.05301,80.61378 -52.73089,0 c -29.03073,0 -80.85353,-7.11101 -115.13544,-15.7434 -67.99533,-17.12141 -122.91231,-0.56023 -122.91231,36.9875 0,34.79225 30.31734,41.44864 169.1941,37.74622 l 134.86211,-3.41423 -4.74199,40.40172 c -2.55439,22.2884 -12.28073,39.16363 -21.62346,37.36686 -108.89204,-20.94122 -130.00176,-20.50553 -139.03506,3.03487 -15.3034,39.88028 2.54219,50.45474 84.97641,50.45474 73.91011,0 78.33762,1.95555 78.33762,36.0391 0,34.75286 -3.05878,36.02393 -82.70025,32.43519 -74.30373,-3.34819 -82.70025,-0.80709 -82.70025,25.03769 0,25.26161 9.62722,28.64161 79.09634,28.64161 75.65886,0 79.27582,1.79543 83.64865,39.83269 l 4.55231,39.64301 -83.64865,-3.79359 c -75.3081,-3.43165 -83.64865,-0.85086 -83.64865,25.03769 0,25.92375 8.16957,28.25156 82.70025,24.27897 l 82.70025,-4.36263 0,45.71276 c 0,44.82444 -1.27088,45.54771 -54.05865,37.17717 -166.55285,-26.41054 -212.79027,-27.29284 -231.978,-4.17295 -10.49076,12.64498 -15.29114,32.97631 -10.62205,45.14372 7.27453,18.9572 35.70951,20.99554 199.16345,14.03628 138.49843,-5.89663 214.5059,-2.55973 277.12173,12.13949 47.43068,11.13458 91.42606,21.16337 97.87461,22.1925 22.98321,3.66497 67.3362,-28.35851 67.3362,-48.55795 0,-38.86772 -52.14175,-50.90141 -178.86773,-41.16045 l -122.91232,9.48398 0,-44.00564 c 0,-43.52309 0.67757,-44.00776 50.8341,-30.15904 63.46902,17.52463 107.16892,4.58946 107.16892,-31.67647 0,-30.69578 -8.1218,-32.95039 -96.92623,-28.26224 -57.59725,3.04076 -61.07679,0.9805 -61.07679,-35.65974 0,-37.60231 2.04217,-38.68928 61.45615,-29.77968 78.3995,11.75667 127.45656,-15.94109 91.61521,-51.7825 -16.41738,-16.41786 -40.12131,-20.55081 -87.8216,-15.17436 -63.17955,7.12127 -65.24976,6.10483 -65.24976,-31.29711 0,-37.71216 1.68709,-38.49583 64.8704,-29.02096 71.01764,10.64979 111.76115,-8.8007 97.30557,-46.47147 -6.55939,-17.09325 -24.30695,-20.72726 -78.14794,-15.55372 -68.63552,6.59502 -69.61239,6.04808 -69.61239,-34.33198 0,-48.18369 24.70058,-51.83057 160.84822,-23.70994 74.14015,15.31336 86.62622,14.47288 108.30698,-7.20782 22.63964,-22.64038 22.67193,-26.07586 0.94839,-47.79923 -18.33098,-18.33098 -48.92668,-22.99006 -139.60409,-21.05442 l -116.27354,2.46584 0,-55.76577 c 0,-55.89026 -3.44846,-59.80518 -91.04614,-101.09916 -0.41275,-0.19484 -0.77007,-0.27678 -1.13808,-0.18938 z"
         inkscape:connector-curvature="0" />
      <path
         style="fill:#000000"
         id="path3357"
         d="m 192.76741,308.39132 c -13.41771,0.53535 -14.47658,33.46844 -8.15622,109.25538 l 9.2943,111.91089 -55.76577,13.8466 c -45.956763,11.34872 -56.566853,20.69795 -60.318083,53.29994 -3.58115,31.12357 1.51902,39.45333 23.520263,39.45333 15.36737,0 35.87176,-9.57612 45.71276,-21.43378 33.17084,-39.96841 43.24692,-22.1088 43.24692,77.76858 0,54.6893 3.75468,109.69471 8.53557,122.15358 19.65571,51.22153 34.52167,-0.95434 34.52167,-121.58454 l 0,-128.41301 51.40313,-21.43378 c 61.54186,-25.71386 52.91092,-57.07173 -11.76013,-42.86756 l -43.81595,9.67365 10.05301,-75.11307 c 8.00672,-60.3574 5.08025,-80.48497 -14.60532,-102.23724 -14.49783,-16.01993 -24.83782,-24.55933 -31.86615,-24.27897 z"
         inkscape:connector-curvature="0" />
    </g>
  </g>
</svg>
