<?xml version="1.0" encoding="UTF-8" standalone="no"?>
<!-- Created with Inkscape (http://www.inkscape.org/) -->

<svg
   xmlns:dc="http://purl.org/dc/elements/1.1/"
   xmlns:cc="http://creativecommons.org/ns#"
   xmlns:rdf="http://www.w3.org/1999/02/22-rdf-syntax-ns#"
   xmlns:svg="http://www.w3.org/2000/svg"
   xmlns="http://www.w3.org/2000/svg"
   xmlns:sodipodi="http://sodipodi.sourceforge.net/DTD/sodipodi-0.dtd"
   xmlns:inkscape="http://www.inkscape.org/namespaces/inkscape"
   width="1000"
   height="1000"
   id="svg3105"
   version="1.1"
   inkscape:version="0.48.3.1 r9886"
   sodipodi:docname="m.svg">
  <defs
     id="defs5498" />
  <sodipodi:namedview
     inkscape:window-height="699"
     inkscape:window-width="1051"
     inkscape:pageshadow="2"
     inkscape:pageopacity="0.0"
     borderopacity="1.0"
     bordercolor="#666666"
     pagecolor="#ffffff"
     id="base"
     showgrid="false"
     showguides="true"
     inkscape:guide-bbox="true"
     inkscape:zoom="0.454"
     inkscape:cx="122.22753"
     inkscape:cy="522.02643"
     inkscape:window-x="2024"
     inkscape:window-y="976"
     inkscape:current-layer="layer1"
     inkscape:snap-bbox="true"
     inkscape:window-maximized="0">
    <sodipodi:guide
       orientation="horizontal"
       position="200"
       id="guide5596" />
  </sodipodi:namedview>
  <metadata
     id="metadata5594">
    <rdf:RDF>
      <cc:Work
         rdf:about="">
        <dc:format>image/svg+xml</dc:format>
        <dc:type
           rdf:resource="http://purl.org/dc/dcmitype/StillImage" />
        <dc:title />
      </cc:Work>
    </rdf:RDF>
  </metadata>
  <g
     inkscape:label="Layer 1"
     inkscape:groupmode="layer"
     id="layer1">
    <g
       id="g3211"
       transform="translate(0,-93.04523)">
      <path
         style="fill:#000000"
         id="path3383"
         d="m 545.18237,113.0487 c -3.6401,-0.0689 -6.2981,0.88913 -7.44342,2.74231 -4.58131,7.41258 -0.11602,43.64949 9.79397,80.70227 9.91005,37.05298 14.18912,71.21445 9.59808,75.80529 -4.59096,4.59097 -56.48367,0.91001 -115.37289,-8.22693 -132.96261,-20.62988 -182.77538,-10.92818 -176.29137,34.67064 4.51012,31.71741 9.59163,32.7571 147.49711,28.20662 l 142.99188,-4.7011 7.05165,101.2696 c 3.91684,55.6566 2.14746,106.80204 -4.11346,113.80587 -6.27391,7.01825 -34.34921,5.17247 -62.48547,-4.11346 -61.04533,-20.14661 -100.09434,-8.32045 -100.09434,30.16541 0,24.46881 11.59129,28.01074 89.71273,28.01074 l 89.7127,0 -4.30934,107.73362 -4.50523,107.53773 -59.35141,-4.89698 c -32.65398,-2.65256 -87.98453,-10.95175 -123.0122,-18.60853 -74.22297,-16.22427 -121.83693,1.75783 -121.83693,46.22751 0,34.89303 -14.6067,33.2531 252.29253,29.77366 118.37071,-1.54322 231.88379,3.87402 252.29254,12.14451 92.38645,37.43897 191.96509,2.73222 147.10534,-51.32038 -16.23968,-19.56718 -44.89811,-22.93693 -161.20865,-18.60853 l -141.62074,5.28874 -4.89699,-58.76379 c -2.63386,-32.29463 -0.80908,-79.20813 3.9176,-104.40367 8.32452,-44.37384 10.99374,-45.85675 86.38276,-45.24812 68.14432,0.55034 77.76409,-2.99886 77.76409,-28.99013 0,-26.43958 -8.81538,-29.2974 -80.11463,-26.24783 l -79.91876,3.32995 8.81457,-105.38306 c 4.85862,-57.95326 12.07945,-108.64802 16.06211,-112.6306 3.98239,-3.98265 58.0909,3.18608 120.26989,15.86622 62.1791,12.68013 122.23951,19.55891 133.39379,15.27859 32.1054,-12.31997 38.15804,-47.04946 12.73216,-72.47535 -19.27999,-19.27991 -45.00261,-21.69967 -148.28063,-13.31979 l -124.97099,10.18572 8.81457,-57.78439 c 8.13221,-53.73317 4.97408,-59.90491 -43.48521,-90.69212 -21.48109,-13.64767 -41.96713,-22.12314 -52.88741,-22.33024 z"
         inkscape:connector-curvature="0" />
      <path
         style="fill:#000000"
         id="path3379"
         d="m 77.226742,138.70889 -1.37116,146.32184 -1.37116,146.32183 72.083578,-9.59808 c 67.78246,-8.99158 72.76411,-7.14887 86.57866,29.18601 8.07286,21.23338 14.69094,74.62219 14.69094,118.70286 0,91.5995 -18.79294,110.14504 -114.00175,112.04296 l -56.609108,0.9794 47.598658,17.43327 c 26.17161,9.58335 56.13023,26.11218 66.59896,36.62943 29.89012,30.02819 75.56742,15.05718 87.1663,-28.59839 5.72732,-21.55681 12.88045,-105.0108 15.86622,-185.4977 l 5.28875,-146.32184 -81.48581,-7.44341 -81.68166,-7.44341 -4.50523,-69.53715 c -3.75298,-58.20205 0.62244,-72.35406 26.83547,-86.38278 17.30006,-9.25879 51.16712,-12.42006 75.60941,-7.05165 26.85628,5.89869 52.76143,2.5737 66.01133,-8.42281 39.70695,-32.95386 -1.45829,-51.37679 -114.5894,-51.32038 l -108.712998,0 z"
         inkscape:connector-curvature="0" />
    </g>
  </g>
</svg>
