<?xml version="1.0" encoding="UTF-8" standalone="no"?>
<!-- Created with Inkscape (http://www.inkscape.org/) -->

<svg
   xmlns:dc="http://purl.org/dc/elements/1.1/"
   xmlns:cc="http://creativecommons.org/ns#"
   xmlns:rdf="http://www.w3.org/1999/02/22-rdf-syntax-ns#"
   xmlns:svg="http://www.w3.org/2000/svg"
   xmlns="http://www.w3.org/2000/svg"
   xmlns:sodipodi="http://sodipodi.sourceforge.net/DTD/sodipodi-0.dtd"
   xmlns:inkscape="http://www.inkscape.org/namespaces/inkscape"
   width="1000"
   height="1000"
   id="svg3105"
   version="1.1"
   inkscape:version="0.48.2 r9819"
   sodipodi:docname="o.svg">
  <defs
     id="defs5498" />
  <sodipodi:namedview
     inkscape:window-height="687"
     inkscape:window-width="1248"
     inkscape:pageshadow="2"
     inkscape:pageopacity="0.0"
     borderopacity="1.0"
     bordercolor="#666666"
     pagecolor="#ffffff"
     id="base"
     showgrid="false"
     showguides="true"
     inkscape:guide-bbox="true"
     inkscape:zoom="0.59"
     inkscape:cx="534.72951"
     inkscape:cy="546.33696"
     inkscape:window-x="7"
     inkscape:window-y="0"
     inkscape:current-layer="layer1"
     inkscape:snap-bbox="false"
     inkscape:window-maximized="0"
     inkscape:bbox-paths="false"
     inkscape:bbox-nodes="false"
     inkscape:object-nodes="false"
     inkscape:snap-nodes="false"
     inkscape:snap-global="false">
    <sodipodi:guide
       orientation="horizontal"
       position="200"
       id="guide5596" />
  </sodipodi:namedview>
  <metadata
     id="metadata5594">
    <rdf:RDF>
      <cc:Work
         rdf:about="">
        <dc:format>image/svg+xml</dc:format>
        <dc:type
           rdf:resource="http://purl.org/dc/dcmitype/StillImage" />
        <dc:title></dc:title>
      </cc:Work>
    </rdf:RDF>
  </metadata>
  <g
     inkscape:label="Layer 1"
     inkscape:groupmode="layer"
     id="layer1">
    <g
       id="g3207"
       transform="matrix(1.0287334,0,0,0.88684772,-5.9523469,-98.975538)">
      <path
         style="fill:#000000"
         d="m 482.46392,142.89623 c -16.11715,0.0991 -21.57902,17.77993 -10.64579,65.51105 10.41186,28.57346 4.313,61.03 5.92518,91.39013 -61.97687,-8.90243 -123.92308,-18.72298 -186.41522,-21.55358 -32.44719,1.35947 -69.1031,-9.16323 -98.64445,8.76192 -8.86073,23.63445 -18.87732,58.35084 -4.9485,75.97359 96.60095,-6.34311 193.27532,-10.62696 290.00817,-13.27227 -0.48184,20.79776 1.26405,41.84012 -1.62779,62.44253 -23.19704,22.58814 -59.4917,-16.76183 -88.03122,-15.78624 -29.9994,-10.60076 -85.38987,11.47474 -68.20466,54.16122 35.99754,18.03571 77.07811,6.2321 115.05263,13.05045 33.6632,-7.82698 63.51441,57.6524 40.46702,75.08631 -39.09445,-14.24015 -78.74034,-30.67527 -120.3267,-31.05489 -45.00056,-12.14549 -57.37351,73.27653 -7.9762,67.58137 34.26212,1.65249 67.47925,10.94352 101.80237,8.20737 23.65945,-1.09037 30.02482,19.98909 31.51331,52.67781 -7.91064,30.09356 -130.73424,-23.94392 -163.65842,5.62973 -14.55875,13.07718 -8.72658,46.87372 17.28757,56.26073 35.45775,12.79466 125.4258,-9.93163 144.66561,18.07115 3.52644,23.63746 7.94806,69.75331 -13.20481,79.00123 -14.67907,14.30586 -92.27191,-15.14972 -105.64268,-18.12245 -31.94582,-5.00387 -111.27025,-16.82593 -121.26999,31.90209 7.6503,45.37352 88.27774,34.34961 117.65804,39.43931 37.49146,-1.12344 76.7363,21.63343 71.53018,57.80531 -1.71757,54.54669 -44.09753,86.65217 -95.41007,110.835 -99.9725,29.7671 -76.97031,19.7547 -32.9044,19.3213 1.28605,-0.013 8.7049,118.1286 19.52392,133.6241 2.83584,4.0616 22.42702,2.6289 28.64921,2.5509 1.55554,-0.019 318.48931,11.4128 325.48801,0.2619 8.59443,-13.6933 25.74803,-26.9511 25.11584,-44.3179 -0.0698,-1.9175 -21.28547,-0.3399 -27.52498,-1.1923 1.4408,-35.8136 -6.06135,-103.108 -3.93535,-103.086 28.27904,-20.6317 54.29599,-51.3105 61.73852,-79.29735 -12.28121,-23.29679 -12.82052,-23.09495 -22.81789,-56.06079 -1.85037,32.94846 -26.06529,84.01399 -53.3747,102.57121 -23.24056,15.79233 -68.24384,10.97113 -90.21714,-12.00756 -25.49295,-25.41771 -7.12362,-64.601 -9.76678,-96.12231 -13.71036,-50.97096 101.15629,-33.07008 125.46866,-31.29785 27.11056,3.33171 137.58317,-17.34184 99.05016,-56.29769 -35.76883,-25.71504 -185.91912,-10.26289 -225.02877,-6.9808 -17.26281,-16.1118 -12.08476,-56.58269 -12.44711,-72.66285 55.94389,-38.16366 93.93425,21.60741 149.21867,-15.20172 11.69005,-8.3255 33.22705,-35.35187 6.88086,-47.09517 -57.05565,-25.43143 -163.6717,2.56256 -163.90992,-2.9694 -0.95288,-22.12788 -0.98159,-41.39758 0.0491,-53.48675 25.98836,-34.2114 101.16462,-13.5912 112.16517,-12.62376 34.56837,3.39925 71.85963,-32.14171 36.15961,-53.77457 -5.98001,-4.2453 -91.44875,-1.23378 -116.45253,3.40125 -30.4136,20.0234 -30.10041,-22.19823 -23.40771,-44.95566 20.81706,-32.17096 63.31952,-13.26986 93.20761,-14.82502 28.72339,10.50604 85.20223,-10.02439 59.28433,-51.7212 -33.22031,-24.58666 -75.74158,-16.49559 -113.26206,-13.93773 -38.69856,17.6674 -32.21952,-30.44116 -25.45873,-57.04489 60.09778,-6.06735 120.64516,6.79027 179.64359,19.55719 32.56318,8.41579 72.1734,22.3354 97.21199,-12.68075 33.23732,-34.06938 -21.64271,-74.329 -51.66625,-70.76081 -76.14178,-1.02789 -151.96865,9.42328 -227.92403,14.52926 l 8.72499,-53.45879 c 18.29898,-45.95558 3.90243,-65.97517 -13.7386,-73.64448 -26.8971,-18.78937 -49.42582,-32.3993 -63.64683,-32.31188 z m 35.33601,748.11871 c 10.06489,41.17728 2.00369,83.24301 -0.0976,124.10876 7.80119,6.9299 17.07475,10.8413 27.1842,12.8286 10.10944,1.9872 21.06187,2.0551 32.29547,1.257 11.23361,-0.7981 47.81766,1.9438 58.99134,0.5176 4.74839,-0.6061 5.39853,71.2724 4.49271,96.1223 -84.52237,0.4049 -287.49133,23.5271 -294.75521,11.9752 -7.01696,-11.1593 -4.63683,-100.4456 -3.58821,-100.4957 65.90629,6.9197 149.36413,-93.06295 142.25121,-165.76095 7.08558,-45.66729 35.15481,-2.05462 33.22609,19.44719 z"
         id="path3349"
         inkscape:connector-curvature="0"
         sodipodi:nodetypes="ccccccccccccccccsscccccccsssssccccscccccccsscccccccccccccccsccssscscccc" />
    </g>
  </g>
</svg>
