<?xml version="1.0" encoding="UTF-8" standalone="no"?>
<!-- Created with Inkscape (http://www.inkscape.org/) -->

<svg
   xmlns:dc="http://purl.org/dc/elements/1.1/"
   xmlns:cc="http://creativecommons.org/ns#"
   xmlns:rdf="http://www.w3.org/1999/02/22-rdf-syntax-ns#"
   xmlns:svg="http://www.w3.org/2000/svg"
   xmlns="http://www.w3.org/2000/svg"
   xmlns:sodipodi="http://sodipodi.sourceforge.net/DTD/sodipodi-0.dtd"
   xmlns:inkscape="http://www.inkscape.org/namespaces/inkscape"
   width="1000"
   height="1000"
   id="svg3105"
   version="1.1"
   inkscape:version="0.48.3.1 r9886"
   sodipodi:docname="p.svg">
  <defs
     id="defs5498" />
  <sodipodi:namedview
     inkscape:window-height="699"
     inkscape:window-width="1051"
     inkscape:pageshadow="2"
     inkscape:pageopacity="0.0"
     borderopacity="1.0"
     bordercolor="#666666"
     pagecolor="#ffffff"
     id="base"
     showgrid="false"
     showguides="true"
     inkscape:guide-bbox="true"
     inkscape:zoom="0.454"
     inkscape:cx="148.65925"
     inkscape:cy="500"
     inkscape:window-x="1920"
     inkscape:window-y="367"
     inkscape:current-layer="layer1"
     inkscape:snap-bbox="true"
     inkscape:window-maximized="0">
    <sodipodi:guide
       orientation="horizontal"
       position="200"
       id="guide5596" />
  </sodipodi:namedview>
  <metadata
     id="metadata5594">
    <rdf:RDF>
      <cc:Work
         rdf:about="">
        <dc:format>image/svg+xml</dc:format>
        <dc:type
           rdf:resource="http://purl.org/dc/dcmitype/StillImage" />
        <dc:title />
      </cc:Work>
    </rdf:RDF>
  </metadata>
  <g
     inkscape:label="Layer 1"
     inkscape:groupmode="layer"
     id="layer1">
    <path
       inkscape:connector-curvature="0"
       d="m 199.61163,184.09945 c -41.5214,1.53039 -72.01096,20.63331 -72.01096,51.2078 0,40.52358 53.87608,57.96443 148.13683,48.23591 82.70557,-8.53591 89.90854,-6.18275 100.12953,32.00488 6.05496,22.62278 11.06345,67.49038 11.2017,99.67228 l 0.22824,58.52319 -73.6112,-13.48776 c -40.49161,-7.45476 -96.92252,-14.40718 -125.50481,-15.31662 -45.4862,-1.44589 -51.40181,3.70123 -47.3215,41.60632 7.61277,70.71871 8.88309,318.08468 1.82887,352.73942 -6.10662,29.99875 10.30117,32.11899 253.29569,34.51953 169.66221,1.67597 271.82331,9.98054 294.44481,23.77505 80.1278,48.86156 106.8368,16.27494 109.5024,-133.73465 1.1004,-61.92828 6.7268,-148.82104 12.5733,-193.17224 13.3684,-101.41054 -10.7819,-118.34042 -151.1087,-105.61609 l -100.8153,9.14425 0,-89.61363 c 0,-107.32756 16.5979,-118.09093 147.2224,-94.41436 100.1396,18.15098 164.5964,4.19993 164.5964,-35.89117 0,-47.99121 -55.4631,-57.07022 -302.2174,-48.69312 -165.80546,5.62897 -266.9198,1.79651 -309.07559,-12.11613 -21.61283,-7.13281 -42.62171,-10.06848 -61.49508,-9.37286 z m 274.32747,94.64298 c 30.44589,0 34.74815,11.60295 34.74815,95.32876 0,83.72586 -4.30226,95.32881 -34.74815,95.32881 -30.4458,0 -34.51953,-11.60295 -34.51953,-95.32881 0,-83.72581 4.07373,-95.32876 34.51953,-95.32876 z m -5.02933,259.92525 c 36.73866,0 39.2736,5.34272 29.49021,66.52441 l -10.7445,66.75301 92.35695,10.97311 c 98.8612,11.70874 126.9107,-0.21727 109.2737,-46.17847 -12.0378,-31.37041 -42.0635,-39.48962 -42.0635,-11.4303 0,23.16947 -57.561,21.99346 -81.1552,-1.60024 -10.3318,-10.3308 -14.7263,-34.08495 -9.8301,-52.80805 7.4936,-28.65478 21.3738,-33.1716 88.4706,-28.80438 68.8989,4.48448 82.0874,11.42454 96.2432,51.89362 10.1742,29.08514 10.1985,78.45246 0.2283,130.07693 l -16.0021,82.98406 -190.65758,2.28607 c -104.80173,1.27375 -217.66364,-2.64965 -251.00964,-8.68705 -53.81821,-9.74395 -61.26778,-17.62564 -66.29579,-70.41071 -3.11548,-32.70597 -1.12914,-84.14121 4.57212,-114.53172 8.92163,-47.55631 19.26268,-56.71621 74.06842,-65.60998 35.02356,-5.68356 66.76456,-7.30371 70.63931,-3.42909 19.54609,19.54607 -32.16552,109.2876 -82.75545,143.56471 -46.57583,31.55746 -50.8658,38.86304 -22.63201,38.86304 51.72894,0 121.39729,-62.04862 146.07937,-130.30552 16.26558,-44.98197 31.76442,-60.12345 61.72369,-60.12345 z"
       id="path3421"
       style="fill:#000000" />
  </g>
</svg>
