<?xml version="1.0" encoding="UTF-8" standalone="no"?>
<!-- Created with Inkscape (http://www.inkscape.org/) -->

<svg
   xmlns:dc="http://purl.org/dc/elements/1.1/"
   xmlns:cc="http://creativecommons.org/ns#"
   xmlns:rdf="http://www.w3.org/1999/02/22-rdf-syntax-ns#"
   xmlns:svg="http://www.w3.org/2000/svg"
   xmlns="http://www.w3.org/2000/svg"
   xmlns:sodipodi="http://sodipodi.sourceforge.net/DTD/sodipodi-0.dtd"
   xmlns:inkscape="http://www.inkscape.org/namespaces/inkscape"
   width="1000"
   height="1000"
   id="svg3105"
   version="1.1"
   inkscape:version="0.48.3.1 r9886"
   sodipodi:docname="q.svg">
  <defs
     id="defs5498" />
  <sodipodi:namedview
     inkscape:window-height="699"
     inkscape:window-width="1051"
     inkscape:pageshadow="2"
     inkscape:pageopacity="0.0"
     borderopacity="1.0"
     bordercolor="#666666"
     pagecolor="#ffffff"
     id="base"
     showgrid="false"
     showguides="true"
     inkscape:guide-bbox="true"
     inkscape:zoom="0.454"
     inkscape:cx="7.7712826"
     inkscape:cy="500"
     inkscape:window-x="2024"
     inkscape:window-y="976"
     inkscape:current-layer="layer1"
     inkscape:snap-bbox="true"
     inkscape:window-maximized="0">
    <sodipodi:guide
       orientation="horizontal"
       position="200"
       id="guide5596" />
  </sodipodi:namedview>
  <metadata
     id="metadata5594">
    <rdf:RDF>
      <cc:Work
         rdf:about="">
        <dc:format>image/svg+xml</dc:format>
        <dc:type
           rdf:resource="http://purl.org/dc/dcmitype/StillImage" />
        <dc:title />
      </cc:Work>
    </rdf:RDF>
  </metadata>
  <g
     inkscape:label="Layer 1"
     inkscape:groupmode="layer"
     id="layer1">
    <path
       inkscape:connector-curvature="0"
       d="m 452.05616,20.012032 c -6.92959,-0.25199 -10.62163,3.45845 -13.41185,10.72947 -4.31878,11.25455 -0.7445,33.7463 7.85551,49.81543 8.59995,16.06914 15.51942,46.105048 15.51942,66.867618 0,37.27996 -0.79294,37.66616 -76.06433,26.63209 -41.92159,-6.14517 -105.65798,-11.37998 -141.59074,-11.49586 -60.06636,-0.19804 -65.33484,2.84171 -65.33484,36.21197 l 0,36.21198 141.59075,-4.98154 141.39916,-4.98154 0,44.83388 c 0,49.94423 -4.74108,51.92446 -70.69959,28.93126 -49.60635,-17.29285 -88.90136,0.28939 -88.90136,39.66074 0,14.55487 21.60297,19.92616 79.51307,19.92616 72.75174,0 80.38867,3.24932 88.70978,36.40358 15.96533,63.61089 -1.122,82.51254 -62.84408,70.12478 -88.54459,-17.77095 -137.04409,-13.90871 -153.66141,12.07066 -11.39133,17.80866 -10.06412,30.61548 4.59835,48.28264 15.81273,19.05309 34.29741,22.01148 89.85935,14.36983 l 69.93318,-9.77149 0,57.47933 c 0,70.37432 -41.89866,128.55904 -106.14516,147.14709 l -46.36666,13.22024 47.70785,1.34119 c 87.94159,2.41425 162.85811,-80.24403 162.85811,-179.71871 0,-21.9083 8.33478,-36.59517 20.50096,-36.59517 23.57217,0 45.78169,125.54908 30.65564,173.20438 -5.1927,16.36294 -5.27203,36.42203 -0.19129,44.64228 7.88892,12.76446 191.52855,5.47804 207.88358,-8.23871 2.64319,-2.21695 -3.04914,-18.66419 -12.64546,-36.59517 -15.52107,-29.00134 -18.85003,-29.86816 -30.84724,-8.4303 -17.36022,31.02094 -75.67388,31.04607 -106.71995,0 -16.69065,-16.68991 -21.46085,-37.54335 -15.51942,-67.25082 4.72918,-23.64623 8.6219,-51.98357 8.6219,-63.03566 0,-15.17448 19.90606,-19.12636 81.42905,-16.28581 65.47126,3.02283 84.62846,-1.50881 97.90646,-22.60854 13.4005,-21.29445 11.18508,-30.30334 -12.26226,-47.70784 -22.2628,-16.52548 -51.47193,-19.13274 -127.02932,-11.68746 l -98.28965,9.57988 0,-56.90453 0,-56.90454 76.25591,0.57449 c 66.74886,0.5426 76.25591,-2.92841 76.25591,-28.35647 0,-25.46117 -8.51871,-28.76027 -68.9752,-25.6741 -67.69152,3.45538 -68.97519,2.79254 -68.97519,-39.85234 0,-50.16317 7.61621,-51.48026 137.95039,-24.14131 100.62365,21.10683 131.89872,17.65078 144.84791,-16.09422 18.12392,-47.23004 -32.95702,-63.77955 -163.43289,-53.07258 l -120.13211,9.77179 9.19669,-57.47933 c 8.72074,-54.536688 6.40323,-59.157478 -43.68429,-88.709768 -24.13292,-14.23875 -38.41519,-21.1348 -47.32464,-21.45895 z"
       id="path3351"
       style="fill:#000000" />
  </g>
</svg>
