<?xml version="1.0" encoding="UTF-8" standalone="no"?>
<!-- Created with Inkscape (http://www.inkscape.org/) -->

<svg
   xmlns:dc="http://purl.org/dc/elements/1.1/"
   xmlns:cc="http://creativecommons.org/ns#"
   xmlns:rdf="http://www.w3.org/1999/02/22-rdf-syntax-ns#"
   xmlns:svg="http://www.w3.org/2000/svg"
   xmlns="http://www.w3.org/2000/svg"
   xmlns:sodipodi="http://sodipodi.sourceforge.net/DTD/sodipodi-0.dtd"
   xmlns:inkscape="http://www.inkscape.org/namespaces/inkscape"
   width="1000"
   height="1000"
   id="svg3105"
   version="1.1"
   inkscape:version="0.48.3.1 r9886"
   sodipodi:docname="r.svg">
  <defs
     id="defs5498" />
  <sodipodi:namedview
     inkscape:window-height="699"
     inkscape:window-width="1051"
     inkscape:pageshadow="2"
     inkscape:pageopacity="0.0"
     borderopacity="1.0"
     bordercolor="#666666"
     pagecolor="#ffffff"
     id="base"
     showgrid="false"
     showguides="true"
     inkscape:guide-bbox="true"
     inkscape:zoom="0.454"
     inkscape:cx="-24.229077"
     inkscape:cy="500"
     inkscape:window-x="2024"
     inkscape:window-y="976"
     inkscape:current-layer="layer1"
     inkscape:snap-bbox="true"
     inkscape:window-maximized="0">
    <sodipodi:guide
       orientation="horizontal"
       position="200"
       id="guide5596" />
  </sodipodi:namedview>
  <metadata
     id="metadata5594">
    <rdf:RDF>
      <cc:Work
         rdf:about="">
        <dc:format>image/svg+xml</dc:format>
        <dc:type
           rdf:resource="http://purl.org/dc/dcmitype/StillImage" />
        <dc:title />
      </cc:Work>
    </rdf:RDF>
  </metadata>
  <g
     inkscape:label="Layer 1"
     inkscape:groupmode="layer"
     id="layer1">
    <g
       id="g3207"
       transform="translate(-2.0873345e-6,-112.51538)">
      <path
         style="fill:#000000"
         id="path3349"
         d="m 548.67131,132.51538 c -12.53234,0 -5.67954,68.08593 7.68979,76.34868 7.6305,4.71593 13.91487,27.09666 13.91487,49.80057 l 0,41.37842 -72.86996,-10.61923 C 457.34584,283.5515 396.4395,278.54971 362.10224,278.43839 c -57.39933,-0.18924 -62.43381,2.53239 -62.43381,34.42098 l 0,34.78717 135.30377,-4.76034 135.30377,-4.76035 0,42.84313 c 0,47.72654 -4.71365,49.6189 -67.74343,27.64666 -47.40377,-16.52502 -84.95392,0.27654 -84.95392,37.8997 0,13.86659 20.5115,19.04139 74.70087,19.04139 68.83809,0 75.12281,2.69715 81.29211,34.97026 8.62904,45.13901 -1.64641,50.44828 -64.99707,32.95627 -62.82571,-17.34689 -90.99591,-8.74387 -90.99591,28.01283 0,23.73501 10.95137,28.08213 79.82739,31.67462 76.21639,3.97521 79.9045,6.03384 84.22157,43.7586 4.36786,38.16763 3.03806,39.01213 -41.56152,28.56209 -85.48784,-20.03067 -115.09558,-15.50689 -119.92418,18.49213 -4.06233,28.60328 1.16503,31.32926 62.43381,31.85773 l 66.82799,0.54897 -55.47639,49.80057 c -30.52207,27.31984 -75.90059,58.22438 -100.69969,68.84199 -24.79916,10.61753 -45.04023,22.87035 -45.04023,27.09737 0,22.25359 150.78888,-49.41566 222.2717,-105.64313 l 48.70203,-38.26589 54.19474,74.88395 c 52.19171,72.01809 56.67475,74.85613 117.72716,74.33469 l 63.53235,-0.54899 -48.51894,-21.05539 c -26.70676,-11.55009 -69.34285,-40.967 -94.65777,-65.36325 l -45.95568,-44.30787 52.91312,-6.95744 c 41.4026,-5.42263 52.91316,-13.09684 52.91316,-34.78717 0,-24.87766 -8.257,-27.38643 -80.55982,-24.90028 -79.98805,2.75034 -80.63714,2.37203 -76.34867,-34.78717 4.11188,-35.62873 7.97817,-37.35043 80.55976,-37.35043 67.05595,0 76.34873,-3.44567 76.34873,-27.82973 0,-24.46632 -8.64608,-27.49888 -72.87001,-25.81575 -70.61406,1.85066 -72.68688,0.79583 -72.68688,-36.0688 0,-37.25228 1.29482,-37.81657 69.02507,-31.30845 56.56484,5.43517 70.84225,2.20459 78.36273,-17.39358 12.70635,-33.11211 -18.41011,-49.87118 -84.95399,-45.5895 -51.98758,3.34491 -55.2361,1.36659 -50.71603,-31.12536 2.65373,-19.07626 6.78448,-36.70103 9.15452,-39.18133 2.37015,-2.48036 52.11613,4.48504 110.58664,15.37958 96.70194,18.01809 108.88258,17.65401 134.75444,-3.29561 27.21039,-22.03372 27.33782,-24.11058 3.84489,-47.60351 -21.30966,-21.3096 -39.87936,-23.23665 -140.79642,-14.83032 l -116.26244,9.70379 8.78835,-54.9271 c 8.34072,-52.15949 6.07004,-56.52659 -42.11078,-84.95392 -27.92407,-16.47556 -53.37897,-30.02682 -56.75802,-30.02682 z"
         inkscape:connector-curvature="0" />
      <path
         style="fill:#000000"
         id="path3345"
         d="m 198.7857,321.64772 c -12.77936,0.94105 -12.39484,23.72944 -2.56327,74.70086 23.0323,119.41018 19.3112,132.37286 -43.02624,151.04954 -61.747265,18.49999 -81.031278,46.10187 -54.560924,77.9965 15.064264,18.15148 23.006754,17.14651 64.081624,-8.23907 l 46.68805,-28.92828 0,119.00874 c 0,70.12255 5.74353,119.00874 13.9148,119.00874 11.11988,0 23.43592,-191.83213 15.3796,-239.84837 -1.01745,-6.06461 20.05047,-20.28513 46.87112,-31.49155 61.18254,-25.5637 64.44799,-53.17055 5.30963,-44.49096 l -43.20933,6.40817 7.6898,-77.63032 c 7.09342,-70.33828 4.81068,-79.96373 -25.08338,-101.98133 -14.40719,-10.61109 -24.79753,-16.05564 -31.49148,-15.56267 z"
         inkscape:connector-curvature="0" />
    </g>
  </g>
</svg>
