<?xml version="1.0" encoding="UTF-8" standalone="no"?>
<!-- Created with Inkscape (http://www.inkscape.org/) -->

<svg
   xmlns:dc="http://purl.org/dc/elements/1.1/"
   xmlns:cc="http://creativecommons.org/ns#"
   xmlns:rdf="http://www.w3.org/1999/02/22-rdf-syntax-ns#"
   xmlns:svg="http://www.w3.org/2000/svg"
   xmlns="http://www.w3.org/2000/svg"
   xmlns:sodipodi="http://sodipodi.sourceforge.net/DTD/sodipodi-0.dtd"
   xmlns:inkscape="http://www.inkscape.org/namespaces/inkscape"
   width="1000"
   height="1000"
   id="svg3105"
   version="1.1"
   inkscape:version="0.48.3.1 r9886"
   sodipodi:docname="s.svg">
  <defs
     id="defs5498" />
  <sodipodi:namedview
     inkscape:window-height="699"
     inkscape:window-width="1051"
     inkscape:pageshadow="2"
     inkscape:pageopacity="0.0"
     borderopacity="1.0"
     bordercolor="#666666"
     pagecolor="#ffffff"
     id="base"
     showgrid="false"
     showguides="true"
     inkscape:guide-bbox="true"
     inkscape:zoom="0.454"
     inkscape:cx="-113.45529"
     inkscape:cy="625.58452"
     inkscape:window-x="1968"
     inkscape:window-y="1156"
     inkscape:current-layer="layer1"
     inkscape:snap-bbox="true"
     inkscape:window-maximized="0">
    <sodipodi:guide
       orientation="horizontal"
       position="200"
       id="guide5596" />
  </sodipodi:namedview>
  <metadata
     id="metadata5594">
    <rdf:RDF>
      <cc:Work
         rdf:about="">
        <dc:format>image/svg+xml</dc:format>
        <dc:type
           rdf:resource="http://purl.org/dc/dcmitype/StillImage" />
        <dc:title />
      </cc:Work>
    </rdf:RDF>
  </metadata>
  <g
     inkscape:label="Layer 1"
     inkscape:groupmode="layer"
     id="layer1">
    <g
       id="g3199"
       transform="matrix(0.95705809,0,0,0.95705809,35.257693,-15.47271)">
      <path
         style="fill:#000000"
         id="path3405"
         d="M 101.8952,16.238406 C 95.835694,16.65782 89.457964,18.913423 82.171568,22.812951 36.824958,47.08166 44.965992,72.20317 120.13426,137.76144 c 76.03275,66.31233 92.67987,72.53139 92.67987,35.41771 0,-32.84375 -28.06841,-86.43726 -68.50252,-130.85465 C 126.98149,23.286997 115.2261,15.315968 101.8952,16.238406 z"
         inkscape:connector-curvature="0" />
      <path
         style="fill:#000000"
         id="path3399"
         d="m 548.14546,42.76531 c -19.1632,1.52387 -20.13206,25.63845 -2.54499,71.89583 9.19941,24.19649 16.75449,69.01381 16.75449,99.67858 l 0,55.77758 -84.19659,-12.30076 c -46.40356,-6.80216 -116.95421,-12.59598 -156.72866,-12.72492 -66.48824,-0.21921 -72.31999,3.14546 -72.31999,40.08351 l 0,40.08351 154.18367,-5.30205 154.18368,-5.51413 10.6041,100.10274 c 5.75852,55.09458 10.39202,137.81962 10.39202,183.66308 0,45.84373 4.92363,88.06001 10.81619,93.95243 19.38152,19.38152 23.27935,-0.10587 36.6902,-181.33024 7.29888,-98.63276 17.50841,-183.56889 22.69278,-188.75306 5.18417,-5.18416 63.87214,1.38977 130.43048,14.63367 99.59925,19.81844 126.03336,20.33483 149.09371,3.18123 22.33431,-16.61366 24.25649,-26.67144 9.75577,-49.83929 -15.73493,-25.14099 -37.07174,-28.29514 -158.00115,-23.75319 l -139.76209,5.30205 9.75578,-85.68116 C 659.51773,101.32779 658.76733,99.81064 602.22639,64.39769 577.69531,49.03337 559.64336,41.85095 548.14546,42.76531 z"
         inkscape:connector-curvature="0" />
      <path
         style="fill:#000000"
         id="path3393"
         d="m 56.509636,296.39884 c -16.256685,-0.1975 -20.71801,13.71095 -17.39073,42.62849 3.95287,34.35391 17.568608,48.33904 61.291714,62.7763 93.91741,31.01135 106.43521,-27.0177 17.17865,-79.74286 C 89.007264,305.177 69.153733,296.55235 56.509636,296.39884 z"
         inkscape:connector-curvature="0" />
      <path
         style="fill:#000000"
         id="path3389"
         d="m 185.03137,503.81511 c -6.79748,0.0679 -28.9772,29.26828 -49.20304,64.68504 -31.9287,55.90924 -40.923896,62.05372 -68.502507,47.2943 -43.608352,-23.33853 -58.865096,18.73591 -24.601522,67.65418 14.046349,20.05408 25.44985,48.70131 25.44985,63.83678 0,15.1354 7.07404,46.04231 15.694074,68.71459 25.339765,66.64882 43.731185,47.97541 55.565505,-56.62591 6.0933,-53.85684 16.74084,-113.48842 23.75319,-132.55137 23.86409,-64.87418 34.23622,-123.13655 21.84445,-123.00761 z"
         inkscape:connector-curvature="0" />
    </g>
  </g>
</svg>
