<?xml version="1.0" encoding="UTF-8" standalone="no"?>
<!-- Created with Inkscape (http://www.inkscape.org/) -->

<svg
   xmlns:dc="http://purl.org/dc/elements/1.1/"
   xmlns:cc="http://creativecommons.org/ns#"
   xmlns:rdf="http://www.w3.org/1999/02/22-rdf-syntax-ns#"
   xmlns:svg="http://www.w3.org/2000/svg"
   xmlns="http://www.w3.org/2000/svg"
   version="1.1"
   width="1000"
   height="1000"
   id="svg3105">
  <defs
     id="defs5498" />
  <metadata
     id="metadata5594">
    <rdf:RDF>
      <cc:Work
         rdf:about="">
        <dc:format>image/svg+xml</dc:format>
        <dc:type
           rdf:resource="http://purl.org/dc/dcmitype/StillImage" />
        <dc:title></dc:title>
      </cc:Work>
    </rdf:RDF>
  </metadata>
  <g
     id="layer1">
    <g
       transform="translate(0,-123.80835)"
       id="g3086">
      <path
         d="m 550.1552,143.80835 c -10.51263,0 0.35945,104.8376 18.42106,176.80211 l 10.21167,40.04577 -97.11101,-9.41075 c -53.37077,-5.21352 -114.09234,-13.36203 -134.95427,-18.22083 -53.93398,-12.56099 -104.46579,27.06678 -81.69339,64.07324 14.8138,24.0729 34.71277,26.82901 162.98632,22.02518 l 146.16708,-5.60641 0,176.20142 c 0,146.47567 3.90303,176.20142 22.8261,176.20142 17.7882,0 22.71973,-20.79132 22.82609,-94.90849 0.0724,-52.15485 4.63801,-131.45203 10.01145,-176.20142 l 9.81121,-81.29293 77.28835,10.21167 c 42.5365,5.63198 101.67809,13.84662 131.35015,18.22083 67.0484,9.88401 106.63054,-24.77565 73.68421,-64.4737 -16.30588,-19.64812 -44.89757,-23.32599 -149.77119,-19.02174 l -129.74831,5.40618 5.00572,-76.08698 c 4.45334,-69.6018 0.8498,-78.80208 -41.24715,-109.92566 -25.2851,-18.69414 -50.41956,-34.03891 -56.06409,-34.03891 z"
         id="path3397"
         style="fill:#000000" />
      <path
         d="m 216.37364,225.30151 c -9.56504,-0.0385 -20.00552,0.032 -31.43593,0.1999 l -118.735733,1.80206 2.402747,144.1648 2.402746,144.1648 63.67279,-4.40503 c 92.29436,-6.17391 105.72085,11.88648 105.72085,141.56182 l 0,110.9268 -85.49774,10.61246 -85.497731,10.81236 57.065231,19.62243 c 31.38558,10.7898 64.5151,26.87199 73.484,35.84097 21.68309,21.68302 48.51831,20.67695 67.27691,-2.60298 8.40513,-10.43099 17.77616,-97.45624 20.8238,-193.4211 l 5.60641,-174.59959 -83.49544,-7.6087 -83.49545,-7.6087 -4.60526,-65.47484 c -6.40617,-89.03708 16.79725,-114.47986 95.30895,-103.71857 69.34218,9.50437 107.61972,-6.32025 94.90849,-39.44509 -5.7434,-14.967 -28.95438,-20.57456 -95.90964,-20.8238 z"
         id="path3395"
         style="fill:#000000" />
      <g
         transform="matrix(1.2277648,0,0,1.4553589,-106.48245,-248.54061)"
         id="text3054"
         style="font-size:40px;font-style:normal;font-weight:normal;line-height:125%;letter-spacing:0px;word-spacing:0px;fill:#000000;fill-opacity:1;stroke:none;font-family:Sans">
        <path
           d="m 420.78125,617.6875 c -26.97386,-2.02633 -56.53637,2.34361 -77.39009,20.93041 -12.63264,11.69807 -16.63105,30.18733 -15.43078,46.83484 1.54623,18.77205 8.92527,36.96694 20.14881,52.01513 10.02212,12.40756 25.72522,18.8977 41.40101,19.72978 26.30791,2.6289 53.24646,-2.00043 77.31012,-12.89918 10.50841,-1.44054 13.48706,-17.67939 4.28477,-22.72374 -7.47561,-2.64681 -13.94002,4.21006 -20.97802,5.81241 -19.85328,7.58916 -41.64788,12.74208 -62.88322,8.80976 -13.11435,-3.95137 -19.47529,-17.49665 -22.98588,-29.65508 -2.20551,-7.03131 -3.5735,-14.3393 -6.68203,-21.03942 -3.38865,-8.16161 5.51025,-13.82632 12.66148,-13.80416 8.57914,-0.70014 17.1683,0.36726 25.76911,-0.24535 22.79283,-0.3017 45.60365,0.62344 68.29265,2.82403 9.4481,-8.30167 8.07767,-23.26705 2.54904,-33.41121 -9.80915,-14.87837 -28.01548,-25.06523 -46.06697,-23.17822 z m -5.99398,17.67226 c 8.72788,-1.77408 18.37741,4.30226 21.40245,12.51117 1.74485,8.69323 -3.70183,8.36736 -15.89763,9.1531 -11.41235,-0.94433 -24.83759,-0.49332 -38.65396,-0.52813 -7.58645,2.61948 -8.24901,-7.15998 -3.07979,-12.49402 4.07886,-5.20271 11.23085,-5.81563 17.21303,-7.41308 6.28814,-1.01176 12.6815,-0.77959 19.0159,-1.22904 z"
           id="path3059"
           style="font-size:300px;font-variant:normal;font-weight:bold;font-stretch:normal;font-family:Papyrus;-inkscape-font-specification:Papyrus Bold" />
      </g>
    </g>
  </g>
</svg>
