<?xml version="1.0" encoding="UTF-8" standalone="no"?>
<!-- Created with Inkscape (http://www.inkscape.org/) -->

<svg
   xmlns:dc="http://purl.org/dc/elements/1.1/"
   xmlns:cc="http://creativecommons.org/ns#"
   xmlns:rdf="http://www.w3.org/1999/02/22-rdf-syntax-ns#"
   xmlns:svg="http://www.w3.org/2000/svg"
   xmlns="http://www.w3.org/2000/svg"
   version="1.1"
   width="1000"
   height="1000"
   id="svg3105">
  <defs
     id="defs5498" />
  <metadata
     id="metadata5594">
    <rdf:RDF>
      <cc:Work
         rdf:about="">
        <dc:format>image/svg+xml</dc:format>
        <dc:type
           rdf:resource="http://purl.org/dc/dcmitype/StillImage" />
        <dc:title></dc:title>
      </cc:Work>
    </rdf:RDF>
  </metadata>
  <g
     id="layer1">
    <g
       transform="translate(992.9023,-27.098661)"
       id="g3074">
      <path
         d="m -503.5185,686.50995 c 11.70054,47.2544 6.62608,28.21598 -9.17454,47.2544 -11.89359,14.33077 -37.26995,14.03918 -45.94663,0 -12.74123,-20.6157 -13.71942,-32.94346 8.51558,-44.26992 12.49949,-0.22783 44.11067,-13.06056 46.60559,-2.98448 z"
         id="path3355"
         style="fill:#000000" />
      <path
         d="m -538.33367,314.75988 c -8.8735,5.28106 -25.14889,20.03994 -33.14626,30.05774 -4.02816,5.04583 -7.64214,12.29335 -7.42466,14.88956 0.59569,7.11162 8.51327,7.45139 29.81167,1.27932 19.55693,-5.6674 26.99434,-5.94208 35.50923,-1.31141 10.19893,5.54651 17.96502,17.98719 28.99054,46.44064 8.64917,22.32086 23.54991,66.26874 22.58055,66.59859 -0.41967,0.1428 -14.83869,3.45938 -32.04227,7.37015 -39.59765,9.00148 -58.31927,14.24471 -73.43127,20.56535 -7.04034,2.94463 -12.42665,5.6194 -14.50321,7.20208 -2.89779,2.20859 -3.36448,2.97955 -3.801,6.27905 -1.03375,7.81376 1.64012,27.25381 6.76076,49.15351 39.56352,201.45275 60.75214,74.30196 46.41456,0.21239 -1.93566,-11.25982 -0.8266,-17.97758 3.79664,-22.99657 10.89419,-11.8268 50.43123,-28.38935 80.37255,-33.66906 10.97549,-1.93537 25.78276,-7.14245 31.9318,-11.22903 13.78248,-9.15969 19.1415,-20.46473 15.71406,-33.14941 -1.75128,-6.48136 -4.98844,-11.46781 -12.67714,-19.52759 -12.19898,-12.78777 -30.57964,-39.25123 -51.32124,-73.88948 -21.51067,-35.92263 -31.73332,-48.93961 -43.79053,-55.76054 -9.02676,-5.10657 -19.55254,-4.58117 -29.74478,1.48471 z"
         id="path3072"
         style="fill:#000000" />
    </g>
  </g>
</svg>
