<?xml version="1.0" encoding="UTF-8" standalone="no"?>
<!-- Created with Inkscape (http://www.inkscape.org/) -->

<svg
   xmlns:dc="http://purl.org/dc/elements/1.1/"
   xmlns:cc="http://creativecommons.org/ns#"
   xmlns:rdf="http://www.w3.org/1999/02/22-rdf-syntax-ns#"
   xmlns:svg="http://www.w3.org/2000/svg"
   xmlns="http://www.w3.org/2000/svg"
   xmlns:sodipodi="http://sodipodi.sourceforge.net/DTD/sodipodi-0.dtd"
   xmlns:inkscape="http://www.inkscape.org/namespaces/inkscape"
   width="1000"
   height="1000"
   id="svg3105"
   version="1.1"
   inkscape:version="0.48.3.1 r9886"
   sodipodi:docname="y.svg">
  <defs
     id="defs5498" />
  <sodipodi:namedview
     inkscape:window-height="699"
     inkscape:window-width="1051"
     inkscape:pageshadow="2"
     inkscape:pageopacity="0.0"
     borderopacity="1.0"
     bordercolor="#666666"
     pagecolor="#ffffff"
     id="base"
     showgrid="false"
     showguides="true"
     inkscape:guide-bbox="true"
     inkscape:zoom="0.454"
     inkscape:cx="148.65925"
     inkscape:cy="447.29593"
     inkscape:window-x="1992"
     inkscape:window-y="842"
     inkscape:current-layer="layer1"
     inkscape:snap-bbox="true"
     inkscape:window-maximized="0">
    <sodipodi:guide
       orientation="horizontal"
       position="200"
       id="guide5596" />
  </sodipodi:namedview>
  <metadata
     id="metadata5594">
    <rdf:RDF>
      <cc:Work
         rdf:about="">
        <dc:format>image/svg+xml</dc:format>
        <dc:type
           rdf:resource="http://purl.org/dc/dcmitype/StillImage" />
        <dc:title />
      </cc:Work>
    </rdf:RDF>
  </metadata>
  <g
     inkscape:label="Layer 1"
     inkscape:groupmode="layer"
     id="layer1">
    <g
       id="g3181"
       transform="translate(0,-53.65485)">
      <path
         style="fill:#000000"
         id="path3427"
         d="m 97.723619,73.655778 c -6.327196,-0.135249 -19.268192,14.52667 -28.884788,32.495382 -14.617265,27.31264 -10.6243,38.52042 25.061801,68.38899 23.477628,19.65022 54.464478,48.4387 68.813758,63.92883 35.54963,38.37605 51.18554,35.27784 51.18554,-9.98224 0,-49.58635 -78.37836,-154.02144 -116.176311,-154.830962 z"
         inkscape:connector-curvature="0" />
      <path
         style="fill:#000000"
         id="path3423"
         d="m 548.62365,95.23044 11.25657,101.09676 c 6.26236,55.55211 12.53226,108.17434 13.80523,117.02587 2.71068,18.86013 -114.66935,13.16215 -202.83068,-9.76986 -70.85595,-18.43067 -124.88423,2.95176 -124.88423,49.27405 0,42.24383 19.96252,46.07192 190.29978,36.53076 l 149.73364,-8.49552 -5.09731,70.72525 c -5.58775,78.09624 3.85846,74.72943 -150.5832,55.4333 l -92.38884,-11.46896 12.10612,69.8757 c 6.61754,38.41317 16.59571,109.5458 22.30076,158.22924 l 10.40702,88.56585 179.68037,0 c 98.78155,0 185.08733,5.46752 191.78649,12.10613 22.31659,22.11501 68.91285,12.39402 77.52167,-16.1415 24.29823,-80.53956 55.9635,-268.05375 47.57495,-281.62675 -5.86742,-9.49378 -56.96209,-11.14986 -130.61871,-4.24776 -109.3852,10.25023 -120.03491,8.72878 -110.65422,-15.71672 5.70872,-14.87655 10.40702,-49.0531 10.40702,-76.03496 0,-48.50544 0.76106,-48.86912 68.38898,-39.2918 219.17179,31.03843 213.61333,31.01437 237.23755,2.54865 20.1153,-24.23739 19.24421,-30.50315 -8.49552,-50.97315 -22.92093,-16.91432 -66.9056,-22.05473 -160.35305,-18.47777 l -128.70721,5.09732 5.09731,-82.19422 c 5.13551,-79.68884 3.71717,-83.3411 -53.7342,-117.23825 L 548.62365,95.23044 z m -19.7521,477.44855 c 28.55074,0.0272 63.41516,1.35643 103.43303,3.82299 l 168.84857,10.40702 5.3097,54.58375 c 2.86504,29.99233 0.99881,71.48495 -4.24776,92.38891 -9.27609,36.95893 -14.26113,37.97915 -174.37066,36.74315 -90.55945,-0.69881 -173.71325,-4.88058 -184.77769,-9.34508 -12.16743,-4.90973 -19.96448,-38.50064 -19.96448,-85.16771 0,-42.43617 8.90011,-84.638 19.96448,-93.66318 7.94006,-6.47678 38.22022,-9.81776 85.80481,-9.76985 z"
         inkscape:connector-curvature="0" />
      <path
         style="fill:#000000"
         id="path3417"
         d="m 61.617635,363.14082 c -37.193276,0 -29.757992,59.13728 11.044183,87.7163 19.672443,13.77906 56.023442,25.0618 80.919882,25.0618 39.12937,0 43.14592,-4.09335 29.30956,-29.94673 C 163.44154,409.62997 95.466868,363.14082 61.617635,363.14082 z"
         inkscape:connector-curvature="0" />
      <path
         style="fill:#000000"
         id="path3411"
         d="m 189.68769,576.5909 c -12.85509,3.36131 -65.83775,81.74973 -77.73407,116.60109 -3.21246,9.41114 -16.874284,6.66321 -32.920158,-6.58403 -48.660196,-40.17283 -62.705543,1.30852 -26.973294,80.0704 17.757144,39.14079 32.513397,86.26676 32.707774,104.70735 0.194378,18.4408 5.143056,38.4882 11.044184,44.38913 31.670704,31.67077 53.734204,-9.56168 53.734204,-100.4596 0,-33.07552 11.18228,-98.32402 25.0618,-145.06117 13.87951,-46.73728 21.54207,-88.68744 16.99105,-93.23839 -0.47643,-0.47643 -1.05447,-0.64906 -1.91149,-0.42478 z"
         inkscape:connector-curvature="0" />
    </g>
  </g>
</svg>
