<?xml version="1.0" encoding="UTF-8" standalone="no"?>
<!-- Created with Inkscape (http://www.inkscape.org/) -->

<svg
   xmlns:dc="http://purl.org/dc/elements/1.1/"
   xmlns:cc="http://creativecommons.org/ns#"
   xmlns:rdf="http://www.w3.org/1999/02/22-rdf-syntax-ns#"
   xmlns:svg="http://www.w3.org/2000/svg"
   xmlns="http://www.w3.org/2000/svg"
   xmlns:sodipodi="http://sodipodi.sourceforge.net/DTD/sodipodi-0.dtd"
   xmlns:inkscape="http://www.inkscape.org/namespaces/inkscape"
   width="1000"
   height="1000"
   id="svg3105"
   version="1.1"
   inkscape:version="0.48.3.1 r9886"
   sodipodi:docname="z.svg">
  <defs
     id="defs5498" />
  <sodipodi:namedview
     inkscape:window-height="756"
     inkscape:window-width="1322"
     inkscape:pageshadow="2"
     inkscape:pageopacity="0.0"
     borderopacity="1.0"
     bordercolor="#666666"
     pagecolor="#ffffff"
     id="base"
     showgrid="false"
     showguides="true"
     inkscape:guide-bbox="true"
     inkscape:zoom="0.454"
     inkscape:cx="-6.5458981"
     inkscape:cy="523.89462"
     inkscape:window-x="1920"
     inkscape:window-y="22"
     inkscape:current-layer="layer1"
     inkscape:snap-bbox="true"
     inkscape:window-maximized="0">
    <sodipodi:guide
       orientation="horizontal"
       position="200"
       id="guide5596" />
  </sodipodi:namedview>
  <metadata
     id="metadata5594">
    <rdf:RDF>
      <cc:Work
         rdf:about="">
        <dc:format>image/svg+xml</dc:format>
        <dc:type
           rdf:resource="http://purl.org/dc/dcmitype/StillImage" />
        <dc:title />
      </cc:Work>
    </rdf:RDF>
  </metadata>
  <g
     inkscape:label="Layer 1"
     inkscape:groupmode="layer"
     id="layer1">
    <path
       style="fill:#000000"
       d="m 450.4664,959.54836 c -9.95048,-1.6154 -15.86104,-7.2468 -22.24185,-21.1916 -6.01676,-13.1491 -2.24313,-23.77049 11.01922,-31.01505 3.66037,-1.99947 35.92016,-8.72688 41.84783,-8.72688 5.72298,0 7.43376,1.49427 9.16567,8.00563 3.05394,11.48176 5.6684,26.1335 5.08093,28.4742 -0.34254,1.3647 -2.6769,3.8569 -5.30915,5.6679 -2.58379,1.7777 -7.00149,5.6107 -9.81711,8.5177 -8.18917,8.455 -18.65651,12.06834 -29.74554,10.2681 z m -3.66928,-74.54209 c -8.85183,-7.44833 -20.09235,-42.97682 -32.39463,-102.39144 -6.16251,-29.76216 -6.97601,-35.08718 -7.07351,-46.30126 -0.0992,-11.41443 -0.23918,-11.21776 12.253,-17.22025 14.93749,-7.17746 38.10835,-13.70553 97.41179,-27.44444 7.5625,-1.75202 13.75,-3.5751 13.75,-4.0513 0,-1.69389 -12.93271,-39.76756 -19.38846,-57.07926 -13.95503,-37.42175 -22.49947,-51.19828 -34.99122,-56.41767 -6.04519,-2.52584 -14.94608,-1.82913 -32.12032,2.51418 -18.16456,4.59376 -26.15472,5.14401 -29.00248,1.99726 -1.56228,-1.7263 -1.65551,-2.52655 -0.67548,-5.79761 1.8127,-6.05025 6.92588,-13.02867 16.63856,-22.70816 10.53344,-10.49745 18.83567,-17.07968 26.5394,-21.04117 4.55977,-2.34477 6.78213,-2.83545 13,-2.87032 9.47777,-0.0531 15.43808,2.82105 24.36765,11.75061 7.92498,7.92498 15.54063,18.90666 35.13857,50.66939 23.08621,37.41622 34.71523,53.89658 52.47941,74.37248 19.2964,22.24202 9.9838,44.7147 -22.98563,55.46776 -3.575,1.16599 -12.7908,3.52599 -20.47956,5.24444 -36.38006,8.13102 -71.77197,24.64739 -77.69534,36.25816 -2.55009,4.99858 -2.68697,13.12084 -0.43524,25.82674 6.39382,36.07876 3.181,89.4483 -5.9798,99.33297 -2.92939,3.16086 -4.4929,3.14007 -8.35671,-0.11111 z"
       id="path3196"
       inkscape:connector-curvature="0" />
    <path
       inkscape:connector-curvature="0"
       d="m 451.25965,60.048234 c -11.93665,0.87863 -15.17589,13.70907 -9.06489,38.52577 5.32985,21.644226 13.25051,57.785116 17.75207,80.450836 l 8.30948,41.35854 -84.22789,-8.30947 c -46.29927,-4.49268 -100.24434,-12.13764 -119.92089,-16.99667 -50.78136,-12.54036 -98.91367,24.86577 -77.24037,60.05487 13.90964,22.58396 32.65407,25.28572 146.73783,20.7737 l 130.68543,-5.28785 0,45.51328 c 0,40.90131 -3.15355,44.29043 -32.1048,34.37103 -17.70892,-6.06737 -51.55115,-11.15374 -75.16301,-11.51996 -33.87414,-0.52516 -43.79361,6.13264 -47.40179,31.53825 -4.27102,30.07252 0.60009,32.1048 74.7853,32.1048 85.66298,0 96.85479,12.4673 89.89344,100.09145 158.79642,27.60785 55.36477,-15.78141 50.04573,-59.11061 -4.2715,-36.87886 -2.49611,-37.86095 71.57483,-35.88184 67.06583,1.79195 75.91842,-1.34885 75.91842,-26.6281 0,-24.7298 -9.25356,-28.34941 -67.98665,-27.57236 -65.89658,0.8718 -67.98664,-0.53181 -67.98664,-41.35855 0,-46.85053 -20.52242,-45.07998 190.17375,-15.29699 46.63938,6.59259 65.95551,3.11318 80.45086,-14.35274 15.86954,-19.11657 15.99838,-26.84167 0.18855,-45.89098 -15.3793,-18.53032 -42.34649,-22.00054 -141.26114,-17.94092 l -122.37596,5.099 4.7213,-48.53491 c 3.84931,-39.1948 -2.98881,-55.01641 -35.69299,-81.772806 -28.33399,-23.18097 -48.87363,-34.3054 -60.81028,-33.42677 z"
       id="path3347"
       style="fill:#000000"
       sodipodi:nodetypes="cscccssccsssssccssssscscccscc" />
  </g>
</svg>
